# xmcd
#
# Track frame offsets: 
#        150
#        12122
#        23217
#        36890
#        48871
#        60507
#        74693
#        85424
#        100009
#        113525
#        128440
#        141020
#        156749
#        165827
#        180176
#        193892
#        204623
#        215313
#        229524
#        244172
#        257221
#        268387
#        280691
#        291826
#        302736
#        316517
#        329119
#        341302
#
# Disc length: 4607 seconds
#
# Revision: 1
# Processed by: cddbd v1.5.2PL0 Copyright (c) Steve Scherf et al.
# Submitted via: ExactAudioCopy v1.1
#
DISCID=8c11fd1c
DTITLE=Leona Williams and Merle Haggard - Old Loves Never Die
DYEAR=2001
DGENRE=Country
TTITLE0=Heart To Heart Talk
TTITLE1=Let's Pretend We're Not Married Tonight
TTITLE2=You Can't Break The Chains Of Love
TTITLE3=Waltz Across Texas
TTITLE4=We're Strangers Again
TTITLE5=Waiting On The Good Life To Come
TTITLE6=Don't Ever Let Your Lover Sleep Alone
TTITLE7=It's Cold In California
TTITLE8=I'll Never Be Free
TTITLE9=Sally Let Your Bangs Hang Down
TTITLE10=Leona Williams - We Agree That We Must Be In Love
TTITLE11=Leona Williams - Someday When Things Are Good
TTITLE12=Leona Williams - The More I See Of Those Cowboys
TTITLE13=Leona Williams - Midnight Love
TTITLE14=Leona Williams - You Sure Make Cheatin' Seem Easy
TTITLE15=Leona Williams - The Telephone Line
TTITLE16=Leona Williams - You Take Me For Granted
TTITLE17=Leona Williams - I Dropped Your Name
TTITLE18=Leona Williams - Melted Down Memories
TTITLE19=Leona Williams - My First Night Away From Home
TTITLE20=Leona Williams - Divorce On The Rocks
TTITLE21=Leona Williams - Old Loves Never Die
TTITLE22=Leona Williams - Waitin' My Turn
TTITLE23=Leona Williams - Too Long A Time To Say Goodbye
TTITLE24=Leona Williams - Love And Honor
TTITLE25=Leona Williams - Tiny White Circle
TTITLE26=Leona Williams - Thinking Of Me
TTITLE27=Leona Williams - Tommy Lasorda (Censored)
EXTD=YEAR: 2001
EXTT0=
EXTT1=
EXTT2=
EXTT3=
EXTT4=
EXTT5=
EXTT6=
EXTT7=
EXTT8=
EXTT9=
EXTT10=
EXTT11=
EXTT12=
EXTT13=
EXTT14=
EXTT15=
EXTT16=
EXTT17=
EXTT18=
EXTT19=
EXTT20=
EXTT21=
EXTT22=
EXTT23=
EXTT24=
EXTT25=
EXTT26=
EXTT27=
PLAYORDER=
